<svg width="192" height="192" viewBox="0 0 192 192" fill="none" xmlns="http://www.w3.org/2000/svg">
<path d="M143.869 114.5H118V155.5H96V94.5V76V35.5H143.869C172.403 35.5 190 46.8079 190 74.6076C190 102.407 172.403 114.5 143.869 114.5ZM141.997 55.3969H118C118 55.3969 118 67.954 118 76H107.5H96V94.5H107.5H118H142C158.05 94.5 164.731 88.1517 164.731 74.6076C164.731 61.0635 158.071 55.3969 141.997 55.3969Z" fill="black"/>
<path d="M63.5096 94.5H117.986V155.911H96.0694V138.68C88.0506 150.339 75.52 158 56.2081 158C22.9731 158 0 132.231 0 95.5256C0 58.8202 23.3341 33 61.0812 33C90.32 33 113.628 48.5025 117.47 75.9994H91.3769C88.2569 61.7092 75.5456 54.0741 61.4422 54.0741C39.8614 54.0741 26.1187 71.3048 26.1187 95.5C26.1187 120.907 40.4028 137.261 61.2617 137.261C77.7888 137.261 88 130.5 93 114.5H63.5306L63.505 90.0832L63.5096 94.5Z" fill="black"/>
</svg>
