<svg width="209" height="20" viewBox="0 0 209 20" fill="none" xmlns="http://www.w3.org/2000/svg">
<g clip-path="url(#clip0_1078_66)">
<path d="M10.1649 9.13743H18.8777V19.6657H15.3711V16.9088C14.0881 18.7742 12.0832 20 8.99329 20C3.6757 20 0 15.877 0 10.0041C0 4.13124 3.73345 0 9.77299 0C14.4512 0 18.1805 2.4804 18.7952 6.8799H14.6203C14.1211 4.59348 12.0873 3.37185 9.83075 3.37185C6.37782 3.37185 4.17899 6.12877 4.17899 10C4.17899 14.0652 6.46445 16.6818 9.80187 16.6818C12.4462 16.6818 14.7276 15.1217 15.0617 12.3648H10.1608V9.13331L10.1649 9.13743Z" fill="black"/>
<path d="M28.1265 5.57129C32.5819 5.57129 35.2263 8.21677 35.2263 12.6741V13.8709H24.7025C24.785 15.5713 26.068 17.1561 28.0976 17.1561C29.5745 17.1561 30.7998 16.4339 31.1339 15.2081H35.0324C34.4218 18.2704 31.662 19.9419 28.1018 19.9419C23.9805 19.9419 20.8906 17.379 20.8906 12.7566C20.8906 8.43963 23.7 5.57129 28.1265 5.57129ZM31.4103 11.308C31.3278 9.52506 29.9376 8.24566 28.209 8.24566C26.3155 8.24566 24.95 9.66538 24.7272 11.308H31.4103Z" fill="black"/>
<path d="M45.9561 9.19118C45.4817 9.16229 45.0114 9.13753 44.5081 9.13753C42.2804 9.13753 40.8324 10.5573 40.8324 12.9799V19.6658H37.0742V5.84822H40.6633V8.77434C41.5007 6.49205 43.1138 5.60059 45.4528 5.60059H45.952V9.19531L45.9561 9.19118Z" fill="black"/>
<path d="M56.1925 19.6611V17.4902C55.19 19.1328 53.2965 19.9417 51.1513 19.9417C48.4781 19.9417 46.3906 18.4931 46.3906 15.8765C46.3906 13.425 48.2264 12.0342 50.9285 11.5596L55.9408 10.697V10.3627C55.9408 8.86038 54.827 8.19179 53.2387 8.19179C51.568 8.19179 50.7594 8.94292 50.648 10.1151H46.8898C47.0301 7.16414 49.365 5.5752 53.2387 5.5752C57.4961 5.5752 59.6124 7.32922 59.6124 11.0065V19.6693H56.1884L56.1925 19.6611ZM55.945 13.9244V13.2847L52.1868 13.9533C50.6851 14.205 49.9879 14.6508 49.9879 15.7073C49.9879 16.6277 50.7965 17.2096 52.1868 17.2096C53.9937 17.2096 55.945 16.0416 55.945 13.9244Z" fill="black"/>
<path d="M71.8895 7.54818V0.333984H75.6477V19.6613H72.0834V17.7958C71.0809 19.133 69.4927 19.9378 67.463 19.9378C63.9564 19.9378 61.2832 17.2923 61.2832 12.7525C61.2832 8.21264 63.9276 5.56716 67.4919 5.56716C69.3565 5.56716 70.8623 6.26465 71.8895 7.54405V7.54818ZM65.2105 12.7566C65.2105 15.0967 66.3822 17.0736 68.6057 17.0736C70.8293 17.0736 72.0009 15.0967 72.0009 12.7566C72.0009 10.4166 70.8334 8.43963 68.6057 8.43963C66.378 8.43963 65.2105 10.4166 65.2105 12.7566Z" fill="black"/>
<path d="M81.9184 0.333984H78.1602V3.75949H81.9184V0.333984Z" fill="black"/>
<path d="M81.9184 5.84766H78.1602V19.6611H81.9184V5.84766Z" fill="black"/>
<path d="M84.4297 19.6613V5.8478H88.0188V7.88247C88.9098 6.54529 90.4692 5.57129 92.6144 5.57129C95.8446 5.57129 97.4865 7.60595 97.4865 10.8045V19.6613H93.7283V11.8074C93.7283 9.49617 92.7547 8.57583 91.1664 8.57583C89.2729 8.57583 88.1879 10.1359 88.1879 12.2531V19.6613H84.4297Z" fill="black"/>
<path d="M113.048 13.0332H109.067V19.6613H105.086V0.333984H113.048C117.697 0.333984 120.564 2.17055 120.564 6.68561C120.564 11.2007 117.697 13.0373 113.048 13.0373V13.0332ZM112.743 3.56551H109.067V9.80571H112.743C115.358 9.80571 116.447 8.88536 116.447 6.68561C116.447 4.48586 115.362 3.56551 112.743 3.56551Z" fill="black"/>
<path d="M130.362 19.6611V17.4902C129.36 19.1328 127.466 19.9417 125.321 19.9417C122.648 19.9417 120.561 18.4931 120.561 15.8765C120.561 13.425 122.396 12.0342 125.098 11.5596L130.111 10.697V10.3627C130.111 8.86038 128.997 8.19179 127.409 8.19179C125.738 8.19179 124.929 8.94292 124.818 10.1151H121.06C121.2 7.16414 123.535 5.5752 127.409 5.5752C131.666 5.5752 133.782 7.32922 133.782 11.0065V19.6693H130.358L130.362 19.6611ZM130.111 13.9244V13.2847L126.353 13.9533C124.851 14.205 124.154 14.6508 124.154 15.7073C124.154 16.6277 124.962 17.2096 126.353 17.2096C128.159 17.2096 130.111 16.0416 130.111 13.9244Z" fill="black"/>
<path d="M155.914 19.6613V5.8478H159.507V7.88247C160.398 6.54529 161.958 5.57129 164.099 5.57129C167.329 5.57129 168.971 7.60595 168.971 10.8045V19.6613H165.213V11.8074C165.213 9.49617 164.239 8.57583 162.651 8.57583C160.757 8.57583 159.672 10.1359 159.672 12.2531V19.6613H155.914Z" fill="black"/>
<path d="M177.849 5.57129C182.305 5.57129 184.949 8.21677 184.949 12.6741V13.8709H174.425C174.508 15.5713 175.791 17.1561 177.82 17.1561C179.297 17.1561 180.522 16.4339 180.857 15.2081H184.755C184.144 18.2704 181.385 19.9419 177.824 19.9419C173.703 19.9419 170.613 17.379 170.613 12.7566C170.613 8.43963 173.423 5.57129 177.849 5.57129ZM181.133 11.308C181.05 9.52506 179.66 8.24566 177.932 8.24566C176.038 8.24566 174.673 9.66538 174.45 11.308H181.133Z" fill="black"/>
<path d="M195.464 9.19118C194.99 9.16229 194.519 9.13753 194.016 9.13753C191.788 9.13753 190.34 10.5573 190.34 12.9799V19.6658H186.582V5.84822H190.171V8.77434C191.009 6.49205 192.622 5.60059 194.961 5.60059H195.46V9.19531L195.464 9.19118Z" fill="black"/>
<path d="M202.49 5.57129C205.831 5.57129 208.698 6.99101 208.752 10.0286H205.023C204.94 8.99679 204.02 8.192 202.378 8.192C201.042 8.192 200.093 8.74916 200.093 9.58284C200.093 10.4165 200.732 10.6683 201.929 10.8912L205.076 11.5061C207.58 11.9807 208.999 13.2601 208.999 15.4888C208.999 18.192 206.801 19.946 202.737 19.946C198.674 19.946 196.277 18.1342 196.141 15.2122H200.039C200.15 16.3802 201.042 17.3295 202.877 17.3295C204.577 17.3295 205.381 16.6898 205.381 15.8808C205.381 15.0719 204.742 14.7376 203.546 14.5148L200.402 13.9287C197.898 13.4541 196.475 12.1458 196.475 9.91714C196.475 7.24277 198.896 5.57129 202.49 5.57129Z" fill="black"/>
<path d="M153.735 8.93951V5.8483H150.088V2.36914H146.359V5.8483H144.449C142.11 5.8483 140.571 6.59531 139.771 8.77442V5.8483H136.178V19.6618H139.936V12.9758C139.936 10.5532 142.271 8.93951 145.06 8.93951H146.33V15.287C146.33 18.242 147.696 19.8269 150.728 19.8269C151.648 19.8269 152.815 19.7443 153.735 19.5462V16.455C153.178 16.5664 152.539 16.649 151.982 16.649C150.534 16.649 150.088 15.8978 150.088 14.4203V8.93538H153.735V8.93951Z" fill="black"/>
</g>
<defs>
<clipPath id="clip0_1078_66">
<rect width="209" height="20" fill="white"/>
</clipPath>
</defs>
</svg>
