<svg width="190" height="125" viewBox="0 0 190 125" fill="none" xmlns="http://www.w3.org/2000/svg">
<path d="M143.869 81.5H118V122.5H96V61.5V43V2.5H143.869C172.403 2.5 190 13.8079 190 41.6076C190 69.4072 172.403 81.5 143.869 81.5ZM141.997 22.3969H118C118 22.3969 118 34.954 118 43H107.5H96V61.5H107.5H118H142C158.05 61.5 164.731 55.1517 164.731 41.6076C164.731 28.0635 158.071 22.3969 141.997 22.3969Z" fill="black"/>
<path d="M63.5096 61.5H117.986V122.911H96.0694V105.68C88.0506 117.339 75.52 125 56.2081 125C22.9731 125 0 99.2312 0 62.5256C0 25.8202 23.3341 0 61.0812 0C90.32 0 113.628 15.5025 117.47 42.9994H91.3769C88.2569 28.7092 75.5456 21.0741 61.4422 21.0741C39.8614 21.0741 26.1187 38.3048 26.1187 62.5C26.1187 87.9075 40.4028 104.261 61.2617 104.261C77.7888 104.261 88 97.5 93 81.5H63.5306L63.505 57.0832L63.5096 61.5Z" fill="black"/>
</svg>
