<svg width="192" height="192" viewBox="0 0 192 192" fill="none" xmlns="http://www.w3.org/2000/svg">
<path d="M144.55 35.1195H97.1736V42.4281C87.4928 36.2889 75.2452 33 61.8244 33C23.615 33 0 58.4339 0 96C0 133.566 23.2483 159 56.8371 159C76.3455 159 89.0327 151.253 97.1736 139.559V156.954H119.322V115.222H144.477C173.885 115.222 192 103.674 192 75.2435C192 46.8132 173.885 35.1195 144.55 35.1195ZM142.57 94.7577H64.2444V115.075H94.3131C90.4998 129.766 77.2255 138.025 61.9709 138.025C40.8494 138.025 26.4018 121.507 26.4018 95.9268C26.4018 70.3469 40.3361 54.1949 62.1175 54.1949C76.3455 54.1949 89.253 61.942 92.4065 76.2668H118.808H119.322V55.4374H142.863C159.438 55.4374 166.038 61.065 166.038 75.0974C166.038 89.1298 159.144 94.7577 142.643 94.7577H142.57Z" fill="black"/>
</svg>
